<?xml version="1.0" encoding="UTF-8"?>
<!DOCTYPE svg PUBLIC "-//W3C//DTD SVG 1.1//EN" "http://www.w3.org/Graphics/SVG/1.1/DTD/svg11.dtd">
<svg xmlns="http://www.w3.org/2000/svg" version="1.1" width="50px" height="50px" style="shape-rendering:geometricPrecision; text-rendering:geometricPrecision; image-rendering:optimizeQuality; fill-rule:evenodd; clip-rule:evenodd" xmlns:xlink="http://www.w3.org/1999/xlink">
<g><path style="opacity:0.887" fill="#fcfbfb" d="M 12.5,-0.5 C 13.1667,-0.5 13.8333,-0.5 14.5,-0.5C 15.1667,0.833333 15.8333,0.833333 16.5,-0.5C 21.8333,-0.5 27.1667,-0.5 32.5,-0.5C 33.1667,0.833333 33.8333,0.833333 34.5,-0.5C 35.1667,-0.5 35.8333,-0.5 36.5,-0.5C 35.105,0.647669 35.2716,1.64767 37,2.5C 38.0495,1.48288 39.2161,1.31621 40.5,2C 42.7493,3.91174 44.0827,6.07841 44.5,8.5C 44.5,9.16667 44.8333,9.5 45.5,9.5C 46.2632,11.3684 47.2632,13.0351 48.5,14.5C 48.3284,15.4916 48.6618,16.1583 49.5,16.5C 49.5,21.8333 49.5,27.1667 49.5,32.5C 48.6618,32.8417 48.3284,33.5084 48.5,34.5C 47.6618,34.8417 47.3284,35.5084 47.5,36.5C 46.6618,36.8417 46.3284,37.5084 46.5,38.5C 45.8333,38.5 45.5,38.8333 45.5,39.5C 44.8333,39.5 44.5,39.8333 44.5,40.5C 43.6618,40.8417 43.3284,41.5084 43.5,42.5C 42.1667,42.8333 42.1667,43.1667 43.5,43.5C 42.1767,46.7109 40.0101,47.7109 37,46.5C 35.2716,47.3523 35.105,48.3523 36.5,49.5C 35.8333,49.5 35.1667,49.5 34.5,49.5C 33.8333,48.1667 33.1667,48.1667 32.5,49.5C 27.1667,49.5 21.8333,49.5 16.5,49.5C 15.8333,48.1667 15.1667,48.1667 14.5,49.5C 13.8333,49.5 13.1667,49.5 12.5,49.5C 13.895,48.3523 13.7284,47.3523 12,46.5C 10.9505,47.5171 9.78387,47.6838 8.5,47C 6.25067,45.0883 4.91734,42.9216 4.5,40.5C 4.5,39.8333 4.16667,39.5 3.5,39.5C 2.40425,36.9684 1.07092,34.6351 -0.5,32.5C -0.5,27.1667 -0.5,21.8333 -0.5,16.5C 1.07092,14.3649 2.40425,12.0316 3.5,9.5C 4.16667,9.5 4.5,9.16667 4.5,8.5C 4.91734,6.07841 6.25067,3.91174 8.5,2C 9.78387,1.31621 10.9505,1.48288 12,2.5C 13.7284,1.64767 13.895,0.647669 12.5,-0.5 Z"/></g>
<g><path style="opacity:0.006" fill="#fefffe" d="M 4.5,8.5 C 3.83333,8.5 3.5,8.83333 3.5,9.5C 2.28749,8.50289 2.45415,7.50289 4,6.5C 4.46434,7.09442 4.63101,7.76109 4.5,8.5 Z"/></g>
<g><path style="opacity:0.006" fill="#fefffe" d="M 45.5,9.5 C 44.8333,9.5 44.5,9.16667 44.5,8.5C 44.7467,6.02482 45.4134,6.02482 46.5,8.5C 46.3764,9.10667 46.0431,9.44001 45.5,9.5 Z"/></g>
<g><path style="opacity:0.012" fill="#fefffe" d="M 49.5,12.5 C 49.5,13.1667 49.5,13.8333 49.5,14.5C 49.1667,14.5 48.8333,14.5 48.5,14.5C 48.3284,13.5084 48.6618,12.8417 49.5,12.5 Z"/></g>
<g><path style="opacity:1" fill="#824322" d="M 12.5,10.5 C 16.7128,10.3382 20.7128,11.0048 24.5,12.5C 27.4119,12.0719 30.2452,11.4053 33,10.5C 36.3333,10.5 39,11.8333 41,14.5C 40.3998,19.7604 39.7332,25.0937 39,30.5C 36.6738,37.4185 31.8405,41.0852 24.5,41.5C 16.9748,40.6656 12.1414,36.6656 10,29.5C 8.85491,24.2012 8.52158,18.8679 9,13.5C 10.1451,12.3636 11.3117,11.3636 12.5,10.5 Z"/></g>
<g><path style="opacity:1" fill="#f7f3f1" d="M 13.5,12.5 C 17.3736,12.4223 21.0402,13.0889 24.5,14.5C 27.5713,14.1296 30.5713,13.4629 33.5,12.5C 37.124,12.7905 39.124,14.7905 39.5,18.5C 37.9079,22.2672 37.0745,26.2672 37,30.5C 33.3454,37.7376 27.5121,40.2376 19.5,38C 17.3762,36.8783 15.5429,35.3783 14,33.5C 13.0141,28.409 11.8474,23.409 10.5,18.5C 10.4672,15.8984 11.4672,13.8984 13.5,12.5 Z"/></g>
<g><path style="opacity:1" fill="#80401e" d="M 30.5,15.5 C 34.2407,14.5985 36.2407,15.9319 36.5,19.5C 33.3918,19.6254 31.3918,18.2921 30.5,15.5 Z"/></g>
<g><path style="opacity:1" fill="#824221" d="M 13.5,15.5 C 19.9022,16.7882 19.5689,18.1215 12.5,19.5C 12.4326,18.0413 12.7659,16.7079 13.5,15.5 Z"/></g>
<g><path style="opacity:1" fill="#783513" d="M 21.5,28.5 C 20.791,29.404 19.791,29.7373 18.5,29.5C 17.2486,28.528 17.582,27.8614 19.5,27.5C 20.4164,27.5427 21.0831,27.8761 21.5,28.5 Z"/></g>
<g><path style="opacity:1" fill="#864828" d="M 28.5,26.5 C 30.3464,26.2222 31.6798,26.8888 32.5,28.5C 30.8333,29.8333 29.1667,29.8333 27.5,28.5C 27.8627,27.8165 28.1961,27.1499 28.5,26.5 Z"/></g>
<g><path style="opacity:1" fill="#b18771" d="M 21.5,28.5 C 23.1947,29.0114 24.8614,29.6781 26.5,30.5C 26.1667,31.5 25.5,32.1667 24.5,32.5C 22.556,31.1993 20.556,30.1993 18.5,29.5C 19.791,29.7373 20.791,29.404 21.5,28.5 Z"/></g>
<g><path style="opacity:0.012" fill="#fefffe" d="M 48.5,34.5 C 48.8333,34.5 49.1667,34.5 49.5,34.5C 49.5,35.1667 49.5,35.8333 49.5,36.5C 49.1667,36.5 48.8333,36.5 48.5,36.5C 48.5,35.8333 48.5,35.1667 48.5,34.5 Z"/></g>
<g><path style="opacity:0.004" fill="#fefffe" d="M 47.5,36.5 C 47.8333,36.5 48.1667,36.5 48.5,36.5C 48.6716,37.4916 48.3382,38.1583 47.5,38.5C 47.5,37.8333 47.5,37.1667 47.5,36.5 Z"/></g>
<g><path style="opacity:0.008" fill="#fefffe" d="M 46.5,38.5 C 46.8333,38.5 47.1667,38.5 47.5,38.5C 47.3147,39.1701 46.9813,39.1701 46.5,38.5 Z"/></g>
<g><path style="opacity:0.006" fill="#fefffe" d="M 3.5,39.5 C 4.16667,39.5 4.5,39.8333 4.5,40.5C 4.2533,42.9752 3.58664,42.9752 2.5,40.5C 2.62358,39.8933 2.95691,39.56 3.5,39.5 Z"/></g>
<g><path style="opacity:0.006" fill="#fefffe" d="M 45.5,39.5 C 45.8333,39.5 46.1667,39.5 46.5,39.5C 46.573,41.0269 45.9063,42.0269 44.5,42.5C 44.5,41.8333 44.5,41.1667 44.5,40.5C 45.1667,40.5 45.5,40.1667 45.5,39.5 Z"/></g>
<g><path style="opacity:0.008" fill="#fefffe" d="M 43.5,42.5 C 43.8333,42.5 44.1667,42.5 44.5,42.5C 44.3147,43.1701 43.9813,43.1701 43.5,42.5 Z"/></g>
</svg>
