<?xml version="1.0" encoding="UTF-8"?><svg id="Layer_1" xmlns="http://www.w3.org/2000/svg" width="397.7403" height="397.7" xmlns:xlink="http://www.w3.org/1999/xlink" viewBox="0 0 397.7403 397.7"><defs><linearGradient id="linear-gradient" x1="345.942" y1="551.2819" x2="146.556" y2="933.1864" gradientTransform="translate(0 -527.89)" gradientUnits="userSpaceOnUse"><stop offset="0" stop-color="#00ffa3"/><stop offset="1" stop-color="#dc1fff"/></linearGradient><linearGradient id="linear-gradient-2" x1="258.7672" y1="505.7694" x2="59.3811" y2="887.6739" gradientTransform="translate(0 -527.89)" gradientUnits="userSpaceOnUse"><stop offset="0" stop-color="#00ffa3"/><stop offset="1" stop-color="#dc1fff"/></linearGradient><linearGradient id="linear-gradient-3" x1="302.0754" y1="528.3798" x2="102.6892" y2="910.2844" gradientTransform="translate(0 -527.89)" gradientUnits="userSpaceOnUse"><stop offset="0" stop-color="#00ffa3"/><stop offset="1" stop-color="#dc1fff"/></linearGradient></defs><path d="M77.0144,273.325c2.1784-2.1784,5.1738-3.4492,8.3506-3.4492h288.097c5.2645,0,7.8968,6.3537,4.1753,10.0752l-56.9114,56.9114c-2.1784,2.1784-5.1738,3.4492-8.3506,3.4492H24.2783c-5.2645,0-7.8968-6.3537-4.1753-10.0752l56.9114-56.9114Z" fill="url(#linear-gradient)" stroke-width="0"/><path d="M77.0144,60.8376c2.2692-2.1784,5.2645-3.4492,8.3506-3.4492h288.097c5.2645,0,7.8968,6.3537,4.1753,10.0752l-56.9114,56.9114c-2.1784,2.1784-5.1738,3.4492-8.3506,3.4492H24.2783c-5.2645,0-7.8968-6.3537-4.1753-10.0752l56.9114-56.9114Z" fill="url(#linear-gradient-2)" stroke-width="0"/><path d="M320.7259,166.4005c-2.1784-2.1784-5.1738-3.4492-8.3506-3.4492H24.2783c-5.2645,0-7.8968,6.3537-4.1753,10.0752l56.9114,56.9114c2.1784,2.1784,5.1738,3.4492,8.3506,3.4492h288.097c5.2645,0,7.8968-6.3537,4.1753-10.0752l-56.9114-56.9114Z" fill="url(#linear-gradient-3)" stroke-width="0"/></svg>